<?xml version="1.0" encoding="utf-8"?>
<svg viewBox="0 0 500 500" xmlns="http://www.w3.org/2000/svg">
  <path d="M 374.665 220.239 L 374.665 160.315 L 387.014 160.315 L 394.579 175.354 C 404.227 194.613 427.153 203.282 447.299 195.303 C 463.123 189.011 473.466 173.82 473.466 156.863 L 473.466 98.935 C 473.466 84.281 466.981 71.083 456.716 62.107 L 461.116 62.107 C 467.909 62.107 473.466 56.581 473.466 49.83 C 473.466 43.079 467.909 37.553 461.116 37.553 L 399.365 37.553 L 374.665 37.553 C 320.092 37.553 275.863 81.517 275.863 135.764 L 201.763 135.764 L 185.708 135.764 L 143.717 135.764 C 120.02 135.764 99.257 148.27 87.756 167.067 C 54.487 171.441 28.861 199.753 28.861 233.972 L 28.861 276.94 C 28.861 287.144 37.12 295.354 47.386 295.354 C 57.652 295.354 65.911 287.144 65.911 276.94 L 65.911 233.972 C 65.911 223.691 71.005 214.637 78.801 209.036 C 80.037 219.011 83.665 228.526 89.299 236.965 L 111.067 269.497 C 117.473 279.011 116.006 291.518 110.14 301.414 C 97.405 322.898 94.24 349.138 102.421 373.461 L 115.929 413.665 C 119.326 423.716 128.743 430.468 139.395 430.468 L 165.408 430.468 C 182.234 430.468 194.198 414.049 188.873 398.166 L 172.817 350.212 C 171.197 345.303 172.431 339.931 176.136 336.248 L 185.939 326.504 C 196.128 316.376 201.84 302.643 201.84 288.371 C 201.84 286.607 201.763 284.842 201.608 283.077 L 266.447 301.491 C 269.611 302.412 272.776 303.103 275.94 303.639 L 275.94 405.838 C 275.94 419.42 286.978 430.391 300.641 430.391 L 325.341 430.391 C 339.003 430.391 350.041 419.42 350.041 405.838 L 350.041 279.778 C 364.862 265.047 374.356 244.715 374.742 221.697 L 374.742 220.239 L 374.665 220.239 Z M 411.715 86.659 C 421.222 86.659 427.165 96.888 422.411 105.073 C 420.204 108.871 416.128 111.211 411.715 111.211 C 402.207 111.211 396.265 100.98 401.019 92.796 C 403.225 88.998 407.303 86.659 411.715 86.659 Z" style="fill: rgb(255, 255, 255); stroke-width: 0px;"/>
</svg>